<svg width="644" height="107" viewBox="0 0 644 107" fill="none" xmlns="http://www.w3.org/2000/svg">
  <path d="M0 0H51.56C61.51 0 69.58 8.07 69.58 18.02V53.06H26.53C11.88 53.06 0 41.18 0 26.53Z" fill="#0C0C0C"/>
  <path d="M18.77 82.72C18.77 69.80 29.25 59.32 42.17 59.32H69.58V88.10C69.58 98.05 61.51 106.12 51.56 106.12H18.77Z" fill="#0C0C0C"/>
  <path d="M146.74 97.76L117.58 97.76L117.58 8.36L146.74 8.36Q160.90 8.36 171.40 14.06Q181.90 19.76 187.66 29.78Q193.42 39.80 193.42 53.00L193.42 53.00Q193.42 66.08 187.66 76.22Q181.90 86.36 171.40 92.06Q160.90 97.76 146.74 97.76L146.74 97.76ZM133.90 22.76L133.90 83.36L147.10 83.36Q156.22 83.36 162.88 79.58Q169.54 75.80 173.26 69.02Q176.98 62.24 176.98 53.00L176.98 53.00Q176.98 43.64 173.26 36.92Q169.54 30.20 162.88 26.48Q156.22 22.76 147.10 22.76L147.10 22.76L133.90 22.76ZM213.10 97.76L195.46 97.76L226.30 8.36L247.42 8.36L278.26 97.76L260.50 97.76L254.14 78.56L219.58 78.56L213.10 97.76ZM239.14 19.64L224.26 64.16L249.46 64.16L234.58 19.64L239.14 19.64ZM347.62 97.76L288.22 97.76L288.22 8.36L347.62 8.36L347.62 22.76L304.54 22.76L304.54 45.68L345.22 45.68L345.22 60.08L304.54 60.08L304.54 83.36L347.62 83.36L347.62 97.76ZM375.94 97.76L359.62 97.76L359.62 8.36L375.22 8.36L408.70 53.84L401.26 53.84L434.02 8.36L449.62 8.36L449.62 97.76L433.18 97.76L433.18 26.96L439.54 28.52L405.58 73.76L403.66 73.76L370.54 28.52L375.94 26.96L375.94 97.76ZM510.82 99.20L510.82 99.20Q500.98 99.20 492.46 95.72Q483.94 92.24 477.58 86.00Q471.22 79.76 467.68 71.30Q464.14 62.84 464.14 53.00L464.14 53.00Q464.14 43.04 467.62 34.64Q471.10 26.24 477.46 20.00Q483.82 13.76 492.34 10.34Q500.86 6.92 510.82 6.92L510.82 6.92Q520.78 6.92 529.30 10.40Q537.82 13.88 544.18 20.06Q550.54 26.24 554.08 34.64Q557.62 43.04 557.62 53.00L557.62 53.00Q557.62 62.84 554.02 71.30Q550.42 79.76 544.06 86.00Q537.70 92.24 529.24 95.72Q520.78 99.20 510.82 99.20ZM510.82 84.32L510.82 84.32Q517.42 84.32 522.94 81.98Q528.46 79.64 532.60 75.44Q536.74 71.24 538.96 65.48Q541.18 59.72 541.18 53.00L541.18 53.00Q541.18 46.28 538.96 40.58Q536.74 34.88 532.60 30.62Q528.46 26.36 522.94 24.08Q517.42 21.80 510.82 21.80L510.82 21.80Q504.34 21.80 498.82 24.08Q493.30 26.36 489.16 30.62Q485.02 34.88 482.74 40.58Q480.46 46.28 480.46 53.00L480.46 53.00Q480.46 59.72 482.74 65.48Q485.02 71.24 489.16 75.44Q493.30 79.64 498.82 81.98Q504.34 84.32 510.82 84.32ZM588.46 97.76L572.14 97.76L572.14 8.36L584.86 8.36L634.06 74.60L627.46 75.92L627.46 8.36L643.78 8.36L643.78 97.76L630.94 97.76L582.46 31.04L588.46 29.72L588.46 97.76Z" fill="#0C0C0C"/>
</svg>